<?xml version="1.0" encoding="utf-8"?>
<!-- Generator: Adobe Illustrator 16.0.3, SVG Export Plug-In . SVG Version: 6.00 Build 0)  -->
<!DOCTYPE svg PUBLIC "-//W3C//DTD SVG 1.1//EN" "http://www.w3.org/Graphics/SVG/1.1/DTD/svg11.dtd">
<svg version="1.1"
	 id="svg2403" xmlns:svg="http://www.w3.org/2000/svg" xmlns:cc="http://creativecommons.org/ns#" xmlns:inkscape="http://www.inkscape.org/namespaces/inkscape" xmlns:sodipodi="http://sodipodi.sourceforge.net/DTD/sodipodi-0.dtd" xmlns:rdf="http://www.w3.org/1999/02/22-rdf-syntax-ns#" xmlns:dc="http://purl.org/dc/elements/1.1/" sodipodi:docname="logout.svg" inkscape:export-filename="logout.png" inkscape:export-xdpi="90" inkscape:export-ydpi="90" inkscape:version="0.48.3.1 r9886"
	 xmlns="http://www.w3.org/2000/svg" xmlns:xlink="http://www.w3.org/1999/xlink" x="0px" y="0px" width="16px" height="16px"
	 viewBox="0 0 16 16" enable-background="new 0 0 16 16" xml:space="preserve">
<sodipodi:namedview  inkscape:cy="6.4537904" borderopacity="1" guidetolerance="10" inkscape:cx="-1.6512429" bordercolor="#666666" pagecolor="#ffffff" showgrid="false" inkscape:zoom="25.279067" objecttolerance="10" gridtolerance="10" id="namedview3047" inkscape:pageshadow="2" inkscape:window-width="1280" inkscape:window-height="745" inkscape:pageopacity="0" inkscape:window-x="0" inkscape:window-maximized="1" inkscape:current-layer="svg2403" inkscape:window-y="27">
	</sodipodi:namedview>
<path id="path3781" inkscape:connector-curvature="0" sodipodi:nodetypes="sccsccsccssscscssscscc" fill="#014260" d="M8,0
	C7.529,0,7.039,0.542,7.05,1v6C7.042,7.528,7.472,8,8,8s0.957-0.472,0.95-1V1C8.965,0.395,8.472,0,8,0z M4.656,2.5
	c-0.087,0.019-0.171,0.051-0.25,0.094c-3,1.572-3.918,4.798-3.125,7.469S4.561,15,7.969,15c3.359,0,5.877-2.149,6.719-4.781
	s-0.057-5.823-3.125-7.594c-0.434-0.253-1.059-0.09-1.313,0.344s-0.09,1.059,0.344,1.313c2.391,1.38,2.883,3.495,2.281,5.375
	c-0.602,1.881-2.344,3.438-4.906,3.438c-2.576,0-4.297-1.65-4.875-3.594C2.517,7.557,3.047,5.452,5.281,4.281
	C5.66,4.075,5.86,3.589,5.737,3.175C5.614,2.762,5.18,2.465,4.75,2.5C4.719,2.499,4.688,2.499,4.656,2.5z"/>
</svg>
