<?xml version="1.0" encoding="utf-8"?>
<!-- Generator: Adobe Illustrator 16.0.3, SVG Export Plug-In . SVG Version: 6.00 Build 0)  -->
<!DOCTYPE svg PUBLIC "-//W3C//DTD SVG 1.1//EN" "http://www.w3.org/Graphics/SVG/1.1/DTD/svg11.dtd">
<svg version="1.1" id="Ebene_1" xmlns="http://www.w3.org/2000/svg" xmlns:xlink="http://www.w3.org/1999/xlink" x="0px" y="0px"
	 width="205px" height="96px" viewBox="0 0 205 96" enable-background="new 0 0 205 96" xml:space="preserve">
<g>
	<path fill="#773A04" d="M36.512,76.707c-0.521,0.105-1.254,0.652-1.229,1.236c0.032,0.603,0.005,1.156,3.159,1.428
		c3.554,0.311,5.482-0.014,8.882-0.844c4.156-1.015,8.26-1.059,12.403-0.92c2.049,0.069,4.068,0.824,6.105,1.235
		c0.706,0.146,5.056,0.216,5.308-2.442c2.807-1.276-0.323-4.715-1.412-5.092c-2.958-1.021-6.066-1.496-9.209-0.479
		c-0.776,0.25-1.639,0.242-2.462,0.352c-0.064-0.156-0.136-0.313-0.198-0.47c1.514-1.049,3.199-1.922,4.497-3.19
		c1.676-1.629,1.473-1.377,2.679-3.363c1.257-2.064,9.188-16.313-10.006-19.602c2.327,0.134,6.721,0.134,12.064,6.031
		c2.408,2.656,2.468-2.742,0.137-4.113c-6.441-5.211-7.771-5.326-10.008-8.087c-1.669-2.063-2.809-5.124-4.897-6.806
		c-1.569-1.255-2.257-2.274-2.23-4.438c1.514-0.851,2.506-1.229,4.012-0.322c1.312,0.788,2.452,0.498,3.406-0.813
		c0.987-1.347,0.55-2.326-0.531-3.257c-0.695-0.599-1.543-1.075-2.103-1.78c-1.439-1.814-2.757-3.729-4.321-5.883
		c1.147-0.308,1.747-0.466,2.343-0.625c2.518-0.671,4.464-3.618,3.88-6.108c-0.135-0.57-0.797-1.297-1.352-1.443
		c-3.572-0.941-8.545,2.422-9.209,6.29c-1.476-0.644-2.969-1.183-4.351-1.921c-2.9-1.539-5.505-0.585-8.014,0.873
		c-1.831,1.063-1.772,2.301,0.076,3.427c2.382,1.451,4.687,1.521,7.525,0.32c-1.676,3.405,0.211,6.189,1.498,9.03
		c0.82,1.812,0.781,4.159,0.619,6.229c-0.296,3.779-1.054,7.521-1.469,11.298c-0.503,4.517-1.094,9.048-1.18,13.578
		c-0.061,3.425-2.474,7.729-6.294,8.458c-2.29,0.438-4.606-0.119-6.584-1.297c-4.844-2.883-8.352-7.153-8.396-13.09
		c-0.01-1.977,0.372-3.92,0.695-5.86c0.198-1.199,0.91-3.417,0.349-4.599c-1.28-2.727-4.265,2.527-4.804,3.637
		c-1.64,3.369-2.114,7.137-1.354,10.8c1.853,8.964,7.096,17.333,16.687,18.831c3.383,0.527,6.82,0.564,10.231,0.698
		C41.717,73.626,47.354,74.577,36.512,76.707z"/>
</g>
<g>
	<g>
		<path fill="#773A04" d="M180.477,88.511c1.133-0.562,1.6-1.937,1.034-3.07c-0.563-1.132-1.938-1.597-3.071-1.034
			c-1.133,0.561-1.595,1.938-1.033,3.07S179.341,89.073,180.477,88.511z"/>
		<path fill="#773A04" d="M189.265,83.355c0.759-1.02,0.549-2.453-0.467-3.207c-1.017-0.759-2.451-0.547-3.21,0.472
			c-0.751,1.016-0.544,2.45,0.476,3.204C187.083,84.581,188.512,84.37,189.265,83.355z"/>
		<path fill="#773A04" d="M194.462,75.023c0.214-1.25-0.63-2.431-1.874-2.647c-1.25-0.21-2.433,0.633-2.646,1.882
			c-0.213,1.248,0.63,2.43,1.878,2.64C193.067,77.109,194.252,76.272,194.462,75.023z"/>
		<path fill="#773A04" d="M196.248,65.51c-0.374-1.209-1.664-1.884-2.871-1.51c-1.211,0.383-1.881,1.668-1.505,2.877
			c0.379,1.207,1.663,1.878,2.875,1.502C195.957,68,196.624,66.718,196.248,65.51z"/>
		<path fill="#773A04" d="M171.771,85.776c-0.887-0.905-2.336-0.924-3.24-0.038c-0.908,0.888-0.925,2.339-0.038,3.245
			c0.885,0.905,2.337,0.92,3.241,0.028C172.64,88.13,172.657,86.683,171.771,85.776z"/>
	</g>
</g>
<text transform="matrix(1 0 0 1 69.9717 79.3125)"><tspan x="0" y="0" fill="#773A04" font-family="'ScalaSansOT-Regular'" font-size="50.9445" letter-spacing="-4">B</tspan><tspan x="25.268" y="0" fill="#773A04" font-family="'ScalaSansOT-Regular'" font-size="50.9445" letter-spacing="-2">o</tspan><tspan x="49.873" y="0" fill="#773A04" font-family="'ScalaSansOT-Regular'" font-size="50.9445">x</tspan></text>
<text transform="matrix(1 0 0 1 139.0049 79.252)" fill="#014260" font-family="'ScalaSansOT-Bold'" font-size="35.9609">UP</text>
</svg>
