<?xml version="1.0" encoding="utf-8"?>
<!-- Generator: Adobe Illustrator 16.0.3, SVG Export Plug-In . SVG Version: 6.00 Build 0)  -->
<!DOCTYPE svg PUBLIC "-//W3C//DTD SVG 1.1//EN" "http://www.w3.org/Graphics/SVG/1.1/DTD/svg11.dtd">
<svg version="1.1" id="Ebene_1" xmlns="http://www.w3.org/2000/svg" xmlns:xlink="http://www.w3.org/1999/xlink" x="0px" y="0px"
	 width="98px" height="52px" viewBox="0 0 98 52" enable-background="new 0 0 98 52" xml:space="preserve">
<g>
	<path fill="#773A04" d="M29.672,37.182c-0.172,0.033-0.411,0.213-0.404,0.406c0.012,0.196,0.002,0.377,1.038,0.466
		c1.164,0.102,1.797-0.005,2.913-0.276c1.362-0.332,2.708-0.346,4.07-0.303c0.67,0.023,1.333,0.271,2.001,0.406
		c0.233,0.049,1.658,0.07,1.741-0.801c0.922-0.419-0.105-1.547-0.462-1.673c-0.972-0.333-1.99-0.49-3.023-0.155
		c-0.255,0.084-0.537,0.078-0.806,0.114c-0.024-0.052-0.046-0.103-0.066-0.152c0.498-0.348,1.048-0.632,1.476-1.048
		c0.549-0.535,0.484-0.451,0.879-1.104c0.413-0.676,3.015-5.352-3.283-6.431c0.764,0.044,2.205,0.044,3.958,1.978
		c0.791,0.871,0.811-0.897,0.045-1.349c-2.112-1.707-2.549-1.748-3.281-2.653c-0.548-0.678-0.921-1.681-1.606-2.233
		c-0.515-0.412-0.741-0.745-0.733-1.456c0.497-0.278,0.825-0.402,1.317-0.105c0.43,0.258,0.804,0.162,1.118-0.265
		c0.324-0.445,0.18-0.764-0.176-1.071c-0.228-0.197-0.503-0.353-0.69-0.584c-0.47-0.595-0.902-1.224-1.416-1.93
		c0.375-0.1,0.571-0.151,0.769-0.205c0.826-0.221,1.465-1.187,1.272-2.005c-0.042-0.187-0.262-0.426-0.442-0.472
		c-1.173-0.308-2.805,0.793-3.021,2.062c-0.484-0.209-0.974-0.387-1.428-0.63c-0.952-0.503-1.806-0.189-2.628,0.288
		c-0.601,0.348-0.583,0.753,0.025,1.124c0.781,0.477,1.538,0.498,2.467,0.105c-0.548,1.116,0.07,2.03,0.493,2.961
		c0.268,0.594,0.255,1.364,0.203,2.044c-0.099,1.24-0.346,2.468-0.482,3.707c-0.164,1.483-0.361,2.97-0.388,4.456
		c-0.019,1.123-0.812,2.535-2.063,2.773c-0.751,0.145-1.513-0.038-2.162-0.426c-1.589-0.946-2.74-2.346-2.752-4.294
		c-0.004-0.65,0.121-1.288,0.228-1.925c0.065-0.393,0.298-1.119,0.115-1.506c-0.421-0.895-1.4,0.829-1.578,1.194
		c-0.538,1.104-0.694,2.339-0.442,3.542c0.608,2.94,2.328,5.685,5.475,6.177c1.108,0.174,2.236,0.186,3.354,0.229
		C31.378,36.17,33.228,36.482,29.672,37.182z"/>
</g>
<text transform="matrix(1 0 0 1 40.938 37.6445)"><tspan x="0" y="0" fill="#773A04" font-family="'ScalaSansOT-Regular'" font-size="22.8747" letter-spacing="-2">B</tspan><tspan x="11.345" y="0" fill="#773A04" font-family="'ScalaSansOT-Regular'" font-size="22.8747" letter-spacing="-1">o</tspan><tspan x="22.394" y="0" fill="#773A04" font-family="'ScalaSansOT-Regular'" font-size="22.8747">x</tspan></text>
<text transform="matrix(1 0 0 1 71.6719 37.6445)" fill="#014260" font-family="'ScalaSansOT-Bold'" font-size="16.1469">UP</text>
<g>
	<g>
		<circle fill="#014260" cx="5.413" cy="17.647" r="0.926"/>
		<circle fill="#014260" cx="4.517" cy="29.051" r="0.924"/>
		<circle fill="#014260" cx="8.893" cy="39.617" r="0.925"/>
		<path fill="#014260" d="M18.415,47.466c0.234-0.456,0.051-1.015-0.402-1.246c-0.457-0.23-1.015-0.051-1.247,0.405
			c-0.23,0.454-0.051,1.011,0.407,1.244C17.628,48.102,18.182,47.919,18.415,47.466z"/>
		<circle fill="#014260" cx="28.712" cy="49.714" r="0.925"/>
	</g>
	<path fill="#014260" d="M14.88,5.243l-0.407,0.345l1.759,2.064c0.494,0.579,0.606,1.129,0.362,1.755
		c-0.124,0.313-0.329,0.6-0.595,0.828c-0.785,0.667-1.808,0.641-2.413-0.068L11.698,7.95l-0.404,0.347l-0.171-0.202l1.286-1.097
		L12.583,7.2l-0.407,0.345l1.745,2.047c0.559,0.656,1.307,0.756,1.908,0.243c0.617-0.524,0.662-1.319,0.108-1.97l-1.74-2.041
		L13.79,6.17l-0.17-0.201l1.089-0.928L14.88,5.243z"/>
	<path fill="#014260" d="M21.192,6.856L19.77,7.608l-0.121-0.232l0.471-0.25l-0.976-1.843c-0.178-0.334-0.457-0.452-0.734-0.305
		c-0.27,0.144-0.363,0.345-0.578,1.263l0.867,1.637l0.477-0.253l0.122,0.234L17.87,8.613l-0.122-0.232l0.478-0.252l-1.199-2.266
		l-0.547,0.29l-0.09-0.17l0.774-0.725l0.113-0.059l0.373,0.705c0.182-0.797,0.364-1.11,0.764-1.325
		c0.468-0.246,0.917-0.097,1.172,0.388l1.009,1.906l0.473-0.249L21.192,6.856z"/>
	<path fill="#014260" d="M23.106,6.264l-1.53,0.522L21.49,6.538l0.511-0.176l-0.83-2.424L20.587,4.14l-0.064-0.181l0.88-0.595
		l0.121-0.042l0.985,2.867l0.509-0.173L23.106,6.264z M20.725,1.91c0.2-0.067,0.409,0.035,0.477,0.229
		c0.067,0.204-0.034,0.411-0.233,0.48c-0.195,0.066-0.403-0.036-0.475-0.237C20.429,2.185,20.53,1.978,20.725,1.91z"/>
	<path fill="#014260" d="M25.718,2.656l-0.295,0.059l-0.528,3.223l-0.141,0.028l-1.825-2.737L22.634,3.28L22.58,3.024l1.354-0.275
		l0.053,0.258l-0.491,0.098l1.249,1.891l0.364-2.217l-0.467,0.096l-0.052-0.26l1.073-0.217L25.718,2.656z"/>
	<path fill="#014260" d="M26.98,3.422c0.043-0.558,0.389-0.92,0.908-0.942c0.412-0.017,0.716,0.277,0.736,0.705l0.007,0.17
		L26.98,3.422z M29.058,4.883c-0.388,0.273-0.579,0.351-0.863,0.363c-0.675,0.027-1.169-0.573-1.206-1.46l-0.005-0.079l2.241-0.093
		l-0.009-0.192c-0.029-0.767-0.578-1.272-1.346-1.24c-0.882,0.038-1.5,0.788-1.459,1.783c0.042,0.982,0.708,1.653,1.613,1.616
		c0.411-0.018,0.656-0.114,1.177-0.439L29.058,4.883z"/>
	<path fill="#014260" d="M31.396,5.646l-1.75-0.179l0.027-0.261l0.538,0.054l0.263-2.547L29.858,2.65l0.021-0.192l1.046-0.17
		L31.053,2.3l-0.081,0.791c0.576-0.597,0.773-0.734,1.03-0.708c0.085,0.01,0.154,0.038,0.192,0.083l0.2,0.215l-0.462,0.452
		c-0.129-0.149-0.221-0.222-0.291-0.23c-0.129-0.013-0.269,0.094-0.706,0.529l-0.191,1.881l0.678,0.072L31.396,5.646z"/>
	<path fill="#014260" d="M32.544,5.897l-0.273-0.066l0.236-0.983l0.316,0.078L32.778,5.11c-0.07,0.298,0.252,0.654,0.683,0.76
		c0.38,0.09,0.71-0.04,0.778-0.317c0.067-0.277-0.089-0.475-0.749-0.937c-0.599-0.417-0.772-0.729-0.667-1.166
		c0.131-0.539,0.656-0.798,1.291-0.646c0.305,0.074,0.521,0.208,0.678,0.413l0.103-0.238l0.298,0.072l-0.409,0.955l-0.296-0.073
		c0.045-0.068,0.077-0.154,0.095-0.217c0.066-0.27-0.191-0.568-0.565-0.658c-0.359-0.086-0.643,0.051-0.715,0.348
		c-0.07,0.298-0.031,0.344,0.724,0.885c0.611,0.434,0.771,0.715,0.665,1.158c-0.137,0.554-0.658,0.836-1.273,0.688
		c-0.388-0.094-0.657-0.254-0.812-0.49L32.544,5.897z"/>
	<path fill="#014260" d="M36.47,7.043l-1.513-0.571l0.094-0.247l0.507,0.192l0.903-2.397l-0.577-0.219l0.064-0.179l1.059,0.102
		l0.119,0.044l-1.071,2.837l0.507,0.19L36.47,7.043z M37.411,2.172c0.199,0.073,0.294,0.285,0.223,0.479
		c-0.076,0.2-0.286,0.295-0.485,0.221c-0.194-0.074-0.29-0.285-0.215-0.485C37.007,2.194,37.218,2.099,37.411,2.172z"/>
	<path fill="#014260" d="M38.599,7.758c-0.469,0.098-0.625,0.09-0.862-0.027c-0.368-0.185-0.476-0.526-0.28-0.912l0.981-1.97
		l-0.555-0.276l0.087-0.17l0.623,0.135l0.44-0.878l0.46,0.229l-0.451,0.897l0.791,0.394l-0.147,0.292l-0.788-0.394l-0.955,1.909
		c-0.121,0.241-0.082,0.371,0.125,0.479c0.137,0.065,0.23,0.083,0.51,0.063L38.599,7.758z"/>
	<path fill="#014260" d="M42.956,5.979c0.112-0.164,0.075-0.388-0.089-0.5c-0.162-0.114-0.385-0.068-0.499,0.096
		c-0.107,0.159-0.072,0.383,0.093,0.495C42.626,6.183,42.849,6.138,42.956,5.979z M41.275,9.495l-0.452-0.311l1.241-1.806
		c0.265-0.386,0.104-0.879-0.414-1.233c-0.533-0.368-1.099-0.386-1.334-0.045c-0.043,0.066-0.06,0.098-0.066,0.199l0.628,0.205
		l0.195-0.282c0.226,0.036,0.313,0.069,0.43,0.151c0.236,0.162,0.293,0.453,0.133,0.688l-0.455,0.662l-1.16-0.459
		c-0.326-0.129-0.69-0.016-0.893,0.284c-0.272,0.392-0.166,0.878,0.24,1.158c0.309,0.212,0.617,0.243,1.075,0.107
		c-0.021,0.022-0.03,0.041-0.042,0.059C40.25,9.089,40.27,9.29,40.45,9.416c0.047,0.03,0.143,0.07,0.234,0.1l0.479,0.145
		L41.275,9.495z M41.917,5.266c0.112-0.165,0.076-0.387-0.086-0.5c-0.167-0.114-0.387-0.068-0.5,0.098
		c-0.108,0.158-0.074,0.382,0.092,0.493C41.585,5.471,41.81,5.425,41.917,5.266z M40.593,8.579
		c-0.414,0.051-0.626,0.029-0.813-0.102c-0.245-0.167-0.294-0.436-0.124-0.682l0.199-0.292l1.165,0.454L40.593,8.579z"/>
	<path fill="#014260" d="M42.836,10.973c-0.478-0.028-0.628-0.074-0.825-0.249c-0.305-0.277-0.32-0.633-0.031-0.958l1.464-1.64
		l-0.461-0.413l0.128-0.143l0.567,0.296l0.653-0.731l0.382,0.341l-0.67,0.747l0.659,0.588l-0.218,0.243L43.826,8.47l-1.423,1.59
		c-0.181,0.203-0.178,0.338-0.001,0.495c0.11,0.099,0.198,0.139,0.475,0.196L42.836,10.973z"/>
	<path fill="#014260" d="M9.368,29.143l-0.343-1.726l0.259-0.051l0.104,0.524l4.093-0.809l-0.104-0.523l0.258-0.052l0.395,1.995
		c0.16,0.813-0.275,1.479-1.059,1.631c-0.78,0.154-1.519-0.388-1.69-1.253c-0.026-0.134-0.033-0.211-0.035-0.401l0.244-0.047
		c-0.001,0.094,0.004,0.129,0.018,0.191c0.12,0.604,0.719,0.998,1.34,0.875c0.56-0.11,0.932-0.566,0.841-1.03l-0.15-0.759
		l-4.026,0.793l0.114,0.593L9.368,29.143z"/>
	<path fill="#014260" d="M13.425,32.009c0.218,0.489-0.17,1.12-0.891,1.442c-0.721,0.322-1.452,0.189-1.67-0.299
		c-0.217-0.488,0.181-1.116,0.894-1.438C12.482,31.395,13.207,31.521,13.425,32.009z M10.592,33.273
		c0.353,0.787,1.331,1.111,2.188,0.729c0.86-0.382,1.271-1.329,0.919-2.117c-0.35-0.785-1.33-1.111-2.188-0.729
		C10.653,31.54,10.239,32.486,10.592,33.273z"/>
	<path fill="#014260" d="M13.302,37.1c-0.462-0.141-0.595-0.221-0.745-0.437c-0.233-0.341-0.166-0.69,0.192-0.938l1.813-1.246
		l-0.352-0.512l0.157-0.109l0.48,0.42l0.809-0.555l0.29,0.42l-0.826,0.57l0.501,0.725l-0.269,0.188l-0.501-0.729l-1.757,1.215
		c-0.223,0.152-0.253,0.285-0.119,0.479c0.083,0.123,0.16,0.185,0.414,0.302L13.302,37.1z"/>
	<path fill="#014260" d="M13.895,38.367l-0.198-0.206l0.728-0.703l0.225,0.235l-0.136,0.134c-0.222,0.213-0.138,0.688,0.169,1.003
		c0.271,0.282,0.623,0.348,0.827,0.15c0.205-0.197,0.179-0.45-0.133-1.189c-0.284-0.674-0.264-1.031,0.06-1.342
		c0.401-0.387,0.982-0.325,1.438,0.146c0.216,0.224,0.327,0.452,0.349,0.708l0.216-0.146l0.212,0.221l-0.856,0.589l-0.213-0.22
		c0.078-0.034,0.153-0.089,0.198-0.134c0.2-0.189,0.144-0.58-0.125-0.855c-0.258-0.266-0.568-0.303-0.789-0.09
		c-0.222,0.212-0.211,0.271,0.138,1.136c0.283,0.693,0.27,1.017-0.058,1.333c-0.41,0.396-1.004,0.356-1.444-0.1
		c-0.275-0.287-0.417-0.564-0.423-0.85L13.895,38.367z"/>
	<path fill="#014260" d="M18.378,41.314c-0.315,0.019-0.429-0.006-0.611-0.129c-0.482-0.326-0.505-0.918-0.058-1.578
		c0.462-0.679,1.15-0.873,1.721-0.485c0.349,0.235,0.38,0.438,0.136,0.806l-0.928,1.366C18.521,41.3,18.43,41.309,18.378,41.314z
		 M19.391,42.251l-0.513-0.349l2.72-4.012l-0.114-0.076l-1.002-0.347l-0.109,0.16l0.513,0.347l-0.923,1.36
		c-0.143-0.271-0.229-0.371-0.431-0.506c-0.77-0.521-1.836-0.292-2.386,0.521c-0.514,0.754-0.434,1.676,0.18,2.092
		c0.298,0.205,0.578,0.238,1.12,0.133l-0.278,0.412l0.112,0.076l1,0.352L19.391,42.251z"/>
	<path fill="#014260" d="M22.036,43.038c-0.393,0.141-0.602,0.166-0.813,0.081c-0.279-0.111-0.384-0.36-0.275-0.639l0.133-0.33
		l1.236,0.187L22.036,43.038z M22.905,43.782l-0.508-0.203l0.809-2.035c0.176-0.438-0.091-0.881-0.675-1.112
		c-0.599-0.24-1.157-0.133-1.313,0.25c-0.026,0.074-0.033,0.109-0.019,0.205l0.656,0.064l0.129-0.316
		c0.225-0.018,0.321-0.004,0.452,0.049c0.266,0.105,0.388,0.377,0.281,0.642l-0.296,0.748l-1.233-0.194
		c-0.347-0.052-0.676,0.139-0.811,0.477c-0.178,0.441,0.033,0.896,0.49,1.076c0.35,0.141,0.657,0.103,1.072-0.132
		c-0.012,0.026-0.021,0.048-0.028,0.066c-0.097,0.241-0.036,0.437,0.17,0.52c0.052,0.021,0.153,0.038,0.248,0.046l0.499,0.038
		L22.905,43.782z"/>
	<path fill="#014260" d="M29.741,45.136l-1.601-0.157l0.026-0.262l0.54,0.051l0.2-2.071c0.037-0.384-0.133-0.623-0.442-0.652
		c-0.234-0.022-0.429,0.063-0.764,0.361l-0.417,0.364l-0.18,1.843l0.531,0.053l-0.026,0.264l-1.6-0.157l0.024-0.263l0.531,0.056
		l0.205-2.076c0.035-0.377-0.134-0.631-0.446-0.658c-0.304-0.03-0.493,0.086-1.179,0.734l-0.179,1.843L25.5,44.46l-0.024,0.263
		l-1.608-0.158l0.026-0.264l0.537,0.053l0.249-2.551l-0.617-0.058l0.02-0.192l1.048-0.177l0.129,0.015l-0.079,0.791
		c0.592-0.563,0.917-0.725,1.368-0.682c0.504,0.051,0.755,0.339,0.771,0.893c0.591-0.564,0.914-0.726,1.36-0.683
		c0.523,0.051,0.817,0.423,0.764,0.961l-0.211,2.152l0.531,0.053L29.741,45.136z"/>
</g>
</svg>
