<?xml version="1.0" encoding="utf-8"?>
<!-- Generator: Adobe Illustrator 16.0.3, SVG Export Plug-In . SVG Version: 6.00 Build 0)  -->
<!DOCTYPE svg PUBLIC "-//W3C//DTD SVG 1.1//EN" "http://www.w3.org/Graphics/SVG/1.1/DTD/svg11.dtd">
<svg version="1.1" id="Ebene_1" xmlns="http://www.w3.org/2000/svg" xmlns:xlink="http://www.w3.org/1999/xlink" x="0px" y="0px"
	 width="133.5px" height="52px" viewBox="0 0 133.5 52" enable-background="new 0 0 133.5 52" xml:space="preserve">
<g>
	<g>
		<g>
			<circle fill="#E7664B" cx="86.053" cy="49.693" r="1.173"/>
		</g>
		<g>
			<circle fill="#92201E" cx="100.491" cy="50.83" r="1.173"/>
		</g>
		<g>
			<circle fill="#F49A2E" cx="113.871" cy="45.287" r="1.172"/>
		</g>
		<g>
			<circle fill="#3EAA84" cx="123.277" cy="34.274" r="1.172"/>
		</g>
		<g>
			<path fill="#148ACB" d="M126.656,19.019c-0.648,0-1.171,0.522-1.171,1.169c0,0.651,0.522,1.176,1.171,1.176
				s1.172-0.524,1.171-1.176C127.828,19.542,127.305,19.019,126.656,19.019z"/>
		</g>
	</g>
</g>
<g>
	<path fill="#004261" d="M98.992,38.285c-0.994,0.685-2.154,0.996-3.853,0.996c-1.72,0-2.838-0.291-3.874-0.996
		c-1.409-0.973-1.864-2.111-1.864-4.619v-8.327h2.589v8.473c0,2.03,1.057,3.045,3.231,3.045c1.989,0,3.045-1.077,3.045-3.045v-8.473
		h2.611v8.327C100.878,36.174,100.422,37.291,98.992,38.285z"/>
	<path fill="#004261" d="M112.17,33.212c-0.975,0.828-2.176,1.181-4.041,1.181c-0.518,0-0.807-0.021-1.264-0.063v4.682h-2.609
		V25.339h4.682c1.781,0,2.775,0.311,3.626,1.12c0.766,0.766,1.159,1.801,1.159,3.063C113.723,31.035,113.184,32.341,112.17,33.212z
		 M108.688,27.555h-1.823v4.559l0.663,0.021c0.29,0,0.477,0.021,0.581,0.021c2.029,0,2.92-0.745,2.92-2.424
		C111.029,28.238,110.305,27.555,108.688,27.555z"/>
</g>
<g>
	<g>
		<path fill="#333333" d="M58.479,39.045h-7.162V19.676h6.281c1.879,0,2.904,0.323,3.873,1.204c0.939,0.88,1.525,2.201,1.525,3.55
			c0,2.084-1.262,3.758-3.314,4.461c2.582,0.5,4.049,2.319,4.049,4.989C63.73,36.962,61.618,39.045,58.479,39.045z M59.652,22.406
			c-0.5-0.528-1.115-0.705-2.613-0.705h-3.315v6.28h3.14c1.379,0,1.995-0.205,2.641-0.852c0.588-0.587,0.939-1.496,0.939-2.494
			C60.443,23.696,60.15,22.905,59.652,22.406z M57.039,30.183h-3.315v6.837h3.315c1.762,0,2.438-0.175,3.111-0.733
			c0.615-0.528,1.027-1.556,1.027-2.582C61.178,31.443,59.682,30.183,57.039,30.183z"/>
		<path fill="#333333" d="M70.511,39.427c-3.609,0-6.573-3.199-6.573-7.015c0-3.844,2.964-7.014,6.573-7.014
			c3.58,0,6.544,3.17,6.544,7.014C77.055,36.228,74.091,39.427,70.511,39.427z M70.511,27.365c-2.348,0-4.168,2.23-4.168,5.047
			c0,2.817,1.82,5.048,4.168,5.048c2.318,0,4.138-2.23,4.138-5.048C74.648,29.596,72.829,27.365,70.511,27.365z"/>
		<path fill="#333333" d="M85.713,39.045l-3.053-4.959l-3.109,4.959h-2.466l4.462-6.721l-4.462-6.573h2.729l2.935,4.931l2.964-4.931
			h2.523l-4.401,6.486l4.578,6.808H85.713z"/>
	</g>
</g>
<path fill-rule="evenodd" clip-rule="evenodd" fill="#004261" d="M65.513,44.314c-0.533-0.324-1.058-0.675-1.533-1.077
	c-0.866-0.734-1.772-1.112-2.958-0.889c-2.363,0.447-4.735,0.3-7.092-0.144c-0.316-0.06-0.502-0.171-0.706-0.493
	c-0.431-0.681-0.908-1.333-1.4-1.973c-0.138-0.397-0.942-1.729-0.975-1.835c-0.043-0.14-0.49-0.626-0.872-1.059
	c0.197-0.106,0.332-0.18,0.65-0.352c-1.219-1.446-2.359-2.852-3.558-4.206c-1.195-1.352-2.45-2.65-3.678-3.974
	c0.039-0.039,0.079-0.079,0.118-0.118c0.411,0.47,0.821,0.94,1.295,1.481c0.167-0.411,0.265-0.635,0.349-0.864
	c0.238-0.661,0.541-1.204,1.371-1.274c0.849-0.073,0.946,0.619,1.227,1.104c0.337,0.579,0.575,1.215,0.911,1.796
	c0.171,0.295,0.426,0.585,0.715,0.751c0.17,0.099,0.482-0.053,0.883-0.116c-1.276-1.007-1.412-2.415-2.03-3.549
	c-0.183-0.337,0.114-0.944,0.212-1.423c0.077-0.371,0.175-0.738,0.287-1.101c0.048-0.155,0.119-0.362,0.241-0.424
	c0.501-0.253,0.356-0.534,0.165-0.929c-0.501-1.043-1.095-2.073-1.377-3.18c-0.596-2.337-2.072-3.582-4.364-3.982
	c-2.413-0.422-5.047,0.915-6.273,3.217c-0.451,0.848-0.776,1.761-1.192,2.627c-1.361,2.825-1.516,3.019-4.142,5.496
	c0.287,0.301,0.575,0.604,0.916,0.962c2.873-2.648,3.652-6.351,5.137-9.678c-0.779,2.576-1.653,5.125-3.022,7.454
	c-0.975,1.659-2.367,2.904-4.184,3.65c-0.763,0.313-1.54,0.591-2.428,0.51c0.035,0.081,0.211,0.568,0.297,0.799
	c-3.626,0.548-14.576-4.753-18.207-3.622C-0.181,31.159,5.213,42.1,5.536,42.745c0.716,1.432-0.532,2.816,0.987,3.29
	c1.264,0.393,2.51,0.267,3.715-0.152c0.901-0.034,1.985-0.05,2.742-0.057c0.871-0.008,1.742,0.047,2.613,0.059
	c1.045,0.016,2.093,0.04,3.137,0.007c0.256-0.009,0.506-0.219,0.765-0.339c0.048,0.108,0.153,0.32,0.493,0.451
	c0.352,0.135,0.649,0.27,1.678-0.169c0.892-0.615,0.631-1.408-0.117-1.991c-0.367-0.287-0.682-0.641-1.002-0.982
	c-0.457-0.489-0.945-0.521-1.623-0.447c-1.359,0.149-2.527,1.139-3.952,0.915c1.088-0.829,2.07-1.79,2.935-2.893
	c0.484,0.108,0.992,0.207,1.484,0.357c2.289,0.699,4.62,1.296,6.845,2.164c4.421,1.725,8.914,1.841,13.499,0.977
	c1.802-0.34,3.604-0.685,5.403-1.033c0.344-0.066,0.684-0.159,0.979-0.229c0.761,0.721,1.508,1.427,2.252,2.138
	c0.08,0.076,0.178,0.17,0.196,0.268c0.167,0.915,0.86,0.89,1.55,0.892c2.083,0.007,4.168,0.068,6.25,0.012
	c1.014-0.028,2.035-0.22,3.031-0.438c0.666-0.146,1.249-0.185,1.876,0.146c0.551,0.291,1.159,0.528,1.809,0.066
	C64.019,46.734,66.341,44.819,65.513,44.314z"/>
</svg>
