<?xml version="1.0" encoding="utf-8"?>
<!-- Generator: Adobe Illustrator 16.0.3, SVG Export Plug-In . SVG Version: 6.00 Build 0)  -->
<!DOCTYPE svg PUBLIC "-//W3C//DTD SVG 1.1//EN" "http://www.w3.org/Graphics/SVG/1.1/DTD/svg11.dtd">
<svg version="1.1" id="Ebene_1" xmlns="http://www.w3.org/2000/svg" xmlns:xlink="http://www.w3.org/1999/xlink" x="0px" y="0px"
	 width="223px" height="96px" viewBox="0 0 223 96" enable-background="new 0 0 223 96" xml:space="preserve">
<g>
	<g>
		<g>
			<circle fill="#E7664B" cx="145.444" cy="86.637" r="1.948"/>
		</g>
		<g>
			<path fill="#92201E" d="M171.361,88.222c-0.171-1.063-1.166-1.789-2.227-1.62c-1.064,0.168-1.789,1.166-1.62,2.23
				c0.169,1.061,1.164,1.783,2.229,1.614C170.805,90.278,171.527,89.282,171.361,88.222z"/>
		</g>
		<g>
			<path fill="#F49A2E" d="M193.247,78.171c-0.632-0.872-1.851-1.063-2.721-0.435c-0.87,0.635-1.061,1.853-0.43,2.723
				c0.63,0.872,1.849,1.062,2.721,0.429C193.688,80.257,193.88,79.041,193.247,78.171z"/>
		</g>
		<g>
			<path fill="#3EAA84" d="M208.186,59.28c-0.957-0.491-2.132-0.11-2.621,0.847c-0.488,0.961-0.104,2.131,0.854,2.622
				c0.958,0.487,2.128,0.106,2.618-0.855C209.526,60.935,209.145,59.769,208.186,59.28z"/>
		</g>
		<g>
			<path fill="#148ACB" d="M212.919,35.662c-1.077,0-1.947,0.869-1.947,1.945c0,1.08,0.87,1.951,1.947,1.951
				s1.946-0.871,1.945-1.951C214.865,36.533,213.996,35.662,212.919,35.662z"/>
		</g>
	</g>
</g>
<g>
	<path fill="#004261" d="M166.947,67.681c-1.652,1.136-3.58,1.652-6.402,1.652c-2.857,0-4.717-0.481-6.438-1.652
		c-2.341-1.618-3.099-3.511-3.099-7.677V46.166h4.304v14.079c0,3.374,1.755,5.061,5.369,5.061c3.305,0,5.061-1.79,5.061-5.061
		V46.166h4.338v13.838C170.08,64.17,169.322,66.028,166.947,67.681z"/>
	<path fill="#004261" d="M188.844,59.247c-1.618,1.377-3.614,1.962-6.713,1.962c-0.86,0-1.342-0.034-2.1-0.104v7.78h-4.338v-22.72
		h7.78c2.96,0,4.612,0.517,6.024,1.859c1.273,1.274,1.928,2.995,1.928,5.094C191.426,55.633,190.53,57.801,188.844,59.247z
		 M183.061,49.85h-3.029v7.573l1.102,0.034c0.482,0,0.792,0.034,0.964,0.034c3.374,0,4.854-1.239,4.854-4.027
		C186.95,50.985,185.746,49.85,183.061,49.85z"/>
</g>
<g>
	<g>
		<path fill="#333333" d="M99.621,68.942H87.721V36.756h10.437c3.121,0,4.828,0.537,6.437,2c1.561,1.463,2.536,3.658,2.536,5.901
			c0,3.462-2.098,6.242-5.511,7.412c4.292,0.83,6.729,3.854,6.729,8.291C108.35,65.479,104.839,68.942,99.621,68.942z
			 M101.571,41.292c-0.829-0.878-1.853-1.17-4.34-1.17H91.72v10.436h5.218c2.292,0,3.316-0.341,4.389-1.414
			c0.976-0.975,1.561-2.487,1.561-4.145C102.888,43.437,102.4,42.121,101.571,41.292z M97.231,54.215H91.72v11.362h5.511
			c2.926,0,4.048-0.292,5.169-1.219c1.023-0.878,1.707-2.585,1.707-4.292C104.107,56.312,101.62,54.215,97.231,54.215z"/>
		<path fill="#333333" d="M119.617,69.576c-5.998,0-10.924-5.315-10.924-11.655c0-6.388,4.926-11.655,10.924-11.655
			c5.949,0,10.875,5.268,10.875,11.655C130.492,64.261,125.566,69.576,119.617,69.576z M119.617,49.533
			c-3.901,0-6.926,3.706-6.926,8.388s3.024,8.388,6.926,8.388c3.853,0,6.876-3.706,6.876-8.388S123.47,49.533,119.617,49.533z"/>
		<path fill="#333333" d="M144.88,68.942l-5.071-8.241l-5.17,8.241h-4.096l7.412-11.168l-7.412-10.923h4.535l4.876,8.193
			l4.926-8.193h4.194l-7.315,10.778l7.607,11.313H144.88z"/>
	</g>
</g>
<path fill-rule="evenodd" clip-rule="evenodd" fill="#004261" d="M111.312,77.699c-0.886-0.538-1.759-1.122-2.549-1.791
	c-1.439-1.22-2.944-1.848-4.915-1.476c-3.928,0.743-7.868,0.497-11.784-0.238c-0.528-0.1-0.835-0.286-1.174-0.82
	c-0.715-1.132-1.509-2.215-2.327-3.278c-0.228-0.659-1.566-2.875-1.62-3.05c-0.071-0.23-0.815-1.04-1.449-1.758
	c0.327-0.178,0.553-0.299,1.081-0.585c-2.025-2.403-3.921-4.738-5.913-6.989c-1.987-2.245-4.071-4.405-6.112-6.603
	c0.065-0.066,0.131-0.132,0.197-0.198c0.683,0.781,1.365,1.563,2.151,2.464c0.277-0.683,0.441-1.055,0.58-1.438
	c0.396-1.099,0.9-2.001,2.278-2.118c1.411-0.12,1.572,1.028,2.039,1.833c0.56,0.964,0.955,2.021,1.514,2.985
	c0.284,0.491,0.708,0.973,1.189,1.249c0.282,0.162,0.801-0.089,1.466-0.194c-2.12-1.673-2.344-4.012-3.372-5.897
	c-0.304-0.56,0.189-1.568,0.353-2.364c0.127-0.616,0.29-1.228,0.477-1.828c0.079-0.258,0.198-0.603,0.4-0.705
	c0.834-0.42,0.593-0.888,0.275-1.545c-0.833-1.73-1.82-3.445-2.288-5.282c-0.991-3.884-3.444-5.951-7.252-6.618
	c-4.01-0.701-8.388,1.522-10.425,5.347c-0.75,1.408-1.29,2.925-1.982,4.364c-2.261,4.695-2.518,5.018-6.882,9.133
	c0.477,0.5,0.955,1.002,1.522,1.599c4.772-4.401,6.068-10.553,8.536-16.083c-1.295,4.282-2.747,8.517-5.023,12.388
	c-1.62,2.757-3.933,4.827-6.953,6.066c-1.268,0.521-2.559,0.981-4.034,0.847c0.059,0.135,0.351,0.946,0.494,1.327
	c-6.027,0.911-24.223-7.896-30.255-6.02c-17.409,5.415-8.446,23.596-7.91,24.667c1.19,2.381-0.883,4.682,1.641,5.468
	c2.101,0.653,4.171,0.442,6.174-0.252c1.498-0.057,3.298-0.084,4.556-0.096c1.447-0.011,2.894,0.079,4.342,0.1
	c1.737,0.025,3.478,0.064,5.213,0.01c0.426-0.013,0.841-0.362,1.271-0.563c0.081,0.18,0.254,0.532,0.819,0.75
	c0.584,0.225,1.079,0.448,2.788-0.28c1.482-1.023,1.049-2.341-0.195-3.311c-0.608-0.476-1.133-1.063-1.665-1.632
	c-0.759-0.812-1.57-0.865-2.696-0.742c-2.259,0.247-4.199,1.892-6.568,1.52c1.808-1.377,3.439-2.975,4.877-4.806
	c0.805,0.179,1.648,0.342,2.466,0.592c3.803,1.164,7.678,2.154,11.374,3.596c7.348,2.866,14.813,3.06,22.432,1.624
	c2.996-0.563,5.988-1.138,8.98-1.717c0.572-0.11,1.137-0.265,1.627-0.38c1.264,1.196,2.506,2.37,3.742,3.551
	c0.132,0.128,0.295,0.282,0.325,0.445c0.278,1.52,1.429,1.478,2.575,1.481c3.462,0.011,6.927,0.113,10.386,0.019
	c1.687-0.048,3.384-0.364,5.039-0.729c1.106-0.242,2.076-0.306,3.118,0.243c0.914,0.482,1.926,0.877,3.005,0.108
	C108.829,81.72,112.688,78.537,111.312,77.699z"/>
</svg>
