<?xml version="1.0" encoding="utf-8"?>
<!-- Generator: Adobe Illustrator 16.0.3, SVG Export Plug-In . SVG Version: 6.00 Build 0)  -->
<!DOCTYPE svg PUBLIC "-//W3C//DTD SVG 1.1//EN" "http://www.w3.org/Graphics/SVG/1.1/DTD/svg11.dtd">
<svg version="1.1" id="Ebene_1" xmlns="http://www.w3.org/2000/svg" xmlns:xlink="http://www.w3.org/1999/xlink" x="0px" y="0px"
	 width="112px" height="105px" viewBox="0 0 112 105" enable-background="new 0 0 112 105" xml:space="preserve">
<g>
	<circle fill="#FFFFFF" cx="12.587" cy="35.199" r="1.932"/>
	<path fill="#FFFFFF" d="M11.016,60.901c1.054-0.169,1.774-1.157,1.606-2.207c-0.166-1.057-1.155-1.775-2.211-1.608
		C9.36,57.252,8.641,58.24,8.81,59.297C8.976,60.348,9.963,61.066,11.016,60.901z"/>
	<path fill="#FFFFFF" d="M20.985,82.605c0.863-0.624,1.054-1.833,0.431-2.697c-0.629-0.863-1.838-1.053-2.701-0.426
		c-0.864,0.623-1.053,1.832-0.424,2.697C18.916,83.044,20.122,83.233,20.985,82.605z"/>
	<path fill="#FFFFFF" d="M39.719,97.421c0.486-0.948,0.108-2.113-0.841-2.598c-0.953-0.484-2.114-0.104-2.6,0.846
		c-0.483,0.948-0.105,2.11,0.85,2.597C38.077,98.752,39.234,98.373,39.719,97.421z"/>
	<path fill="#FFFFFF" d="M63.14,102.115c0-1.066-0.86-1.93-1.926-1.93c-1.072,0-1.937,0.863-1.937,1.93
		c0,1.068,0.864,1.932,1.937,1.929C62.277,104.047,63.14,103.184,63.14,102.115z"/>
	<path fill="#FFFFFF" d="M32.341,9.309l-0.848,0.722l3.668,4.308c1.03,1.207,1.266,2.355,0.76,3.663
		c-0.262,0.653-0.691,1.251-1.245,1.724c-1.639,1.396-3.772,1.34-5.034-0.141l-3.94-4.623l-0.847,0.721l-0.355-0.418l2.689-2.292
		l0.357,0.419l-0.849,0.721l3.642,4.274c1.165,1.368,2.728,1.577,3.982,0.508c1.289-1.097,1.379-2.755,0.224-4.113l-3.631-4.26
		l-0.847,0.722l-0.356-0.419l2.271-1.935L32.341,9.309z"/>
	<path fill="#FFFFFF" d="M45.513,12.676l-2.967,1.571l-0.256-0.486l0.985-0.52l-2.037-3.846c-0.37-0.697-0.951-0.942-1.53-0.637
		c-0.563,0.298-0.76,0.721-1.206,2.639l1.806,3.413l0.997-0.528l0.257,0.487l-2.98,1.576l-0.257-0.485l0.997-0.529l-2.5-4.725
		l-1.142,0.605l-0.187-0.354l1.617-1.514l0.237-0.125l0.778,1.472c0.38-1.664,0.758-2.317,1.597-2.761
		c0.973-0.514,1.911-0.205,2.445,0.809l2.105,3.976l0.983-0.521L45.513,12.676z"/>
	<path fill="#FFFFFF" d="M49.505,11.44l-3.188,1.094l-0.18-0.52l1.069-0.366l-1.735-5.06L44.25,7.011l-0.131-0.38l1.835-1.243
		l0.253-0.086l2.054,5.983l1.066-0.364L49.505,11.44z M44.539,2.357c0.42-0.143,0.855,0.07,0.995,0.477
		c0.144,0.421-0.07,0.855-0.49,1c-0.409,0.139-0.842-0.074-0.985-0.495C43.918,2.932,44.13,2.496,44.539,2.357z"/>
	<path fill="#FFFFFF" d="M54.956,3.912l-0.612,0.125l-1.106,6.725l-0.29,0.059l-3.812-5.713l-0.613,0.109l-0.11-0.538l2.825-0.573
		l0.108,0.538l-1.018,0.207l2.602,3.943l0.758-4.625l-0.973,0.199l-0.109-0.541l2.239-0.456L54.956,3.912z"/>
	<path fill="#FFFFFF" d="M57.593,5.512c0.088-1.164,0.814-1.923,1.897-1.966c0.862-0.037,1.494,0.577,1.534,1.468l0.013,0.355
		L57.593,5.512z M61.927,8.558c-0.809,0.57-1.204,0.733-1.799,0.758c-1.407,0.058-2.44-1.193-2.517-3.047l-0.008-0.164l4.676-0.192
		l-0.019-0.401c-0.064-1.604-1.209-2.657-2.811-2.59C57.611,3,56.321,4.567,56.409,6.646c0.083,2.046,1.478,3.447,3.363,3.368
		c0.86-0.036,1.373-0.234,2.459-0.917L61.927,8.558z"/>
	<path fill="#FFFFFF" d="M66.806,10.154L63.157,9.78l0.056-0.548l1.123,0.115l0.548-5.316l-1.286-0.133l0.041-0.4l2.186-0.355
		l0.266,0.027l-0.169,1.655c1.205-1.251,1.62-1.535,2.152-1.481c0.178,0.019,0.322,0.078,0.401,0.176l0.415,0.445l-0.961,0.945
		c-0.269-0.31-0.462-0.463-0.608-0.48c-0.269-0.026-0.558,0.199-1.471,1.105l-0.405,3.929l1.418,0.146L66.806,10.154z"/>
	<path fill="#FFFFFF" d="M69.208,10.676l-0.579-0.14l0.499-2.05l0.662,0.16l-0.095,0.391c-0.15,0.621,0.526,1.365,1.422,1.583
		c0.791,0.191,1.485-0.084,1.625-0.661c0.142-0.577-0.187-0.993-1.559-1.954c-1.256-0.87-1.618-1.521-1.397-2.43
		c0.275-1.126,1.369-1.671,2.699-1.35c0.633,0.153,1.088,0.432,1.409,0.86l0.212-0.498l0.619,0.149l-0.852,1.996l-0.618-0.152
		c0.096-0.142,0.17-0.324,0.203-0.452c0.138-0.565-0.403-1.185-1.181-1.373c-0.749-0.183-1.339,0.104-1.49,0.724
		s-0.068,0.718,1.509,1.848c1.278,0.906,1.609,1.491,1.385,2.416c-0.281,1.154-1.372,1.743-2.655,1.433
		c-0.809-0.195-1.37-0.529-1.694-1.021L69.208,10.676z"/>
	<path fill="#FFFFFF" d="M77.396,13.065l-3.153-1.191l0.194-0.513l1.056,0.398l1.889-5.002L76.173,6.3l0.141-0.373l2.205,0.213
		l0.25,0.094l-2.234,5.92l1.053,0.397L77.396,13.065z M79.362,2.901c0.414,0.157,0.613,0.598,0.462,1
		c-0.158,0.418-0.597,0.617-1.014,0.46c-0.402-0.153-0.601-0.592-0.446-1.011C78.519,2.948,78.958,2.749,79.362,2.901z"/>
	<path fill="#FFFFFF" d="M81.843,14.556c-0.98,0.207-1.309,0.192-1.8-0.054c-0.77-0.385-0.994-1.096-0.59-1.905l2.052-4.107
		L80.35,7.915l0.177-0.359l1.304,0.286l0.914-1.834l0.959,0.478l-0.938,1.872l1.647,0.825l-0.306,0.61L82.46,8.97l-1.992,3.983
		c-0.251,0.504-0.171,0.776,0.267,0.997c0.28,0.138,0.479,0.173,1.062,0.13L81.843,14.556z"/>
	<path fill="#FFFFFF" d="M90.935,10.848c0.232-0.343,0.156-0.81-0.187-1.044c-0.34-0.236-0.806-0.139-1.039,0.202
		c-0.229,0.331-0.152,0.799,0.192,1.032C90.243,11.275,90.709,11.177,90.935,10.848z M87.426,18.185l-0.944-0.647l2.591-3.77
		c0.554-0.809,0.214-1.834-0.862-2.575c-1.114-0.766-2.297-0.804-2.785-0.092c-0.092,0.136-0.121,0.205-0.138,0.412l1.308,0.429
		L87,11.354c0.472,0.071,0.656,0.145,0.9,0.312c0.491,0.339,0.614,0.945,0.279,1.435l-0.95,1.382l-2.421-0.959
		c-0.682-0.271-1.439-0.033-1.868,0.593c-0.562,0.819-0.344,1.835,0.503,2.415c0.65,0.445,1.291,0.508,2.242,0.226
		c-0.032,0.047-0.061,0.085-0.087,0.122c-0.308,0.453-0.275,0.874,0.106,1.135c0.097,0.067,0.297,0.148,0.486,0.209l0.998,0.304
		L87.426,18.185z M88.765,9.359c0.237-0.344,0.161-0.809-0.183-1.044c-0.344-0.235-0.803-0.138-1.039,0.205
		c-0.229,0.329-0.153,0.797,0.191,1.032C88.074,9.786,88.539,9.691,88.765,9.359z M86.002,16.271
		c-0.866,0.108-1.305,0.058-1.695-0.209c-0.515-0.352-0.617-0.91-0.266-1.424l0.422-0.611l2.428,0.948L86.002,16.271z"/>
	<path fill="#FFFFFF" d="M90.686,21.271c-1.001-0.06-1.313-0.157-1.722-0.523c-0.641-0.575-0.673-1.319-0.069-1.994l3.057-3.423
		l-0.965-0.861l0.269-0.3l1.182,0.619l1.367-1.529l0.794,0.712l-1.395,1.561l1.374,1.228l-0.455,0.509l-1.372-1.224l-2.97,3.322
		c-0.376,0.42-0.368,0.704-0.004,1.03c0.23,0.209,0.415,0.293,0.99,0.408L90.686,21.271z"/>
	<path fill="#FFFFFF" d="M20.837,59.186l-0.71-3.601l0.539-0.106l0.216,1.094l8.538-1.682l-0.214-1.093l0.539-0.107l0.823,4.167
		c0.331,1.689-0.575,3.082-2.206,3.402c-1.632,0.322-3.173-0.813-3.529-2.618c-0.056-0.28-0.072-0.44-0.073-0.835l0.51-0.1
		c-0.004,0.196,0.008,0.268,0.034,0.401c0.246,1.253,1.5,2.08,2.797,1.824c1.166-0.227,1.945-1.186,1.757-2.146l-0.314-1.589
		l-8.405,1.656l0.242,1.238L20.837,59.186z"/>
	<path fill="#FFFFFF" d="M29.305,65.169c0.455,1.017-0.354,2.337-1.858,3.007c-1.506,0.674-3.03,0.395-3.483-0.626
		c-0.456-1.017,0.374-2.326,1.865-2.992C27.335,63.885,28.852,64.149,29.305,65.169z M23.393,67.806
		c0.732,1.643,2.778,2.322,4.567,1.523c1.792-0.797,2.649-2.773,1.917-4.415c-0.732-1.641-2.778-2.323-4.566-1.523
		C23.52,64.188,22.66,66.163,23.393,67.806z"/>
	<path fill="#FFFFFF" d="M29.046,75.794c-0.96-0.295-1.239-0.46-1.551-0.915c-0.488-0.71-0.344-1.438,0.401-1.952l3.779-2.605
		l-0.732-1.065l0.328-0.229l1.002,0.881l1.689-1.164l0.606,0.881l-1.724,1.188l1.043,1.518l-0.561,0.386l-1.047-1.517l-3.667,2.533
		c-0.464,0.317-0.526,0.595-0.248,1c0.176,0.253,0.335,0.381,0.866,0.627L29.046,75.794z"/>
	<path fill="#FFFFFF" d="M30.284,78.435l-0.415-0.426l1.517-1.468l0.474,0.493l-0.286,0.276c-0.46,0.443-0.288,1.437,0.352,2.097
		c0.568,0.589,1.3,0.726,1.73,0.313c0.425-0.414,0.371-0.941-0.276-2.482c-0.596-1.409-0.551-2.153,0.121-2.804
		c0.834-0.805,2.05-0.68,2.999,0.305c0.454,0.468,0.687,0.943,0.731,1.48l0.448-0.308l0.443,0.46l-1.785,1.23l-0.445-0.461
		c0.159-0.072,0.318-0.185,0.415-0.277c0.417-0.401,0.294-1.212-0.264-1.789c-0.537-0.554-1.189-0.629-1.646-0.187
		c-0.46,0.446-0.441,0.57,0.285,2.369c0.595,1.451,0.563,2.12-0.121,2.782c-0.854,0.828-2.092,0.744-3.012-0.209
		c-0.576-0.597-0.872-1.179-0.883-1.768L30.284,78.435z"/>
	<path fill="#FFFFFF" d="M39.639,84.587c-0.656,0.04-0.891-0.01-1.272-0.269c-1.009-0.683-1.054-1.918-0.12-3.296
		c0.96-1.41,2.399-1.817,3.592-1.009c0.725,0.491,0.794,0.915,0.279,1.68l-1.932,2.851C39.942,84.56,39.754,84.574,39.639,84.587z
		 M41.758,86.543l-1.07-0.725l5.672-8.375l-0.233-0.156l-2.095-0.723l-0.226,0.333l1.07,0.724l-1.925,2.842
		c-0.3-0.562-0.48-0.775-0.9-1.056c-1.608-1.093-3.836-0.61-4.985,1.085c-1.067,1.573-0.899,3.499,0.379,4.367
		c0.625,0.425,1.208,0.494,2.34,0.275l-0.581,0.86l0.233,0.158l2.089,0.733L41.758,86.543z"/>
	<path fill="#FFFFFF" d="M47.278,88.184c-0.82,0.295-1.255,0.346-1.698,0.169c-0.579-0.231-0.802-0.751-0.572-1.331l0.276-0.69
		l2.579,0.391L47.278,88.184z M49.09,89.735l-1.063-0.422l1.694-4.249c0.363-0.912-0.195-1.837-1.408-2.321
		c-1.256-0.499-2.417-0.275-2.737,0.522c-0.06,0.154-0.074,0.229-0.042,0.433l1.37,0.13l0.265-0.663
		c0.476-0.032,0.672-0.004,0.948,0.107c0.551,0.221,0.806,0.785,0.585,1.338l-0.622,1.561l-2.573-0.404
		c-0.723-0.112-1.409,0.284-1.689,0.989c-0.37,0.923,0.071,1.866,1.022,2.248c0.731,0.29,1.373,0.209,2.238-0.278
		c-0.023,0.056-0.04,0.097-0.056,0.14c-0.202,0.509-0.076,0.914,0.353,1.084c0.109,0.04,0.318,0.079,0.521,0.092l1.039,0.082
		L49.09,89.735z"/>
	<path fill="#FFFFFF" d="M63.355,92.56l-3.339-0.323l0.054-0.547l1.125,0.106l0.422-4.329c0.079-0.798-0.277-1.296-0.928-1.359
		c-0.487-0.047-0.893,0.136-1.596,0.754l-0.865,0.766l-0.376,3.845l1.109,0.107l-0.055,0.548L55.568,91.8l0.053-0.548l1.108,0.108
		l0.425-4.329c0.077-0.785-0.275-1.312-0.927-1.373c-0.635-0.063-1.032,0.18-2.463,1.533l-0.376,3.845l1.125,0.109l-0.055,0.546
		l-3.354-0.327l0.052-0.547l1.123,0.11l0.52-5.321l-1.285-0.128l0.039-0.397l2.184-0.368l0.266,0.025l-0.163,1.656
		c1.235-1.178,1.911-1.516,2.855-1.425c1.05,0.104,1.572,0.71,1.608,1.86c1.235-1.179,1.909-1.512,2.841-1.424
		c1.095,0.108,1.705,0.883,1.595,2.006l-0.439,4.493l1.108,0.109L63.355,92.56z"/>
	<path fill="#FFFFFF" d="M63.009,41.829c-0.073-0.211-0.129-0.506-0.129-0.839c0-0.639,0.174-1.154,0.39-1.154
		c0.215,0,0.388,0.516,0.388,1.154c0,0.333-0.05,0.635-0.125,0.844h3.019c-0.074-0.209-0.125-0.512-0.125-0.844
		c0-0.639,0.177-1.154,0.39-1.154c0.217,0,0.391,0.516,0.391,1.154c0,0.333-0.05,0.635-0.124,0.844h2.992
		c-0.075-0.209-0.121-0.512-0.121-0.844c0-0.639,0.174-1.154,0.388-1.154c0.216,0,0.39,0.516,0.39,1.154
		c0,0.333-0.05,0.635-0.124,0.844h2.987c-0.077-0.209-0.122-0.512-0.122-0.844c0-0.639,0.172-1.154,0.386-1.154
		c0.217,0,0.392,0.516,0.392,1.154c0,0.333-0.05,0.635-0.127,0.844h2.846v-4.277h0.964c0.11-0.293,0.284-0.824,0.264-1.425
		c-0.096-3.09,1.57-5.643,5.227-5.775c-0.063-0.205-0.104-0.485-0.104-0.793c0-0.639,0.178-1.154,0.394-1.154
		s0.395,0.516,0.395,1.154c0,0.309-0.043,0.589-0.108,0.793c3.655,0.132,5.322,2.685,5.227,5.775
		c-0.02,0.602,0.155,1.132,0.272,1.425h0.96v4.277h2.843c-0.077-0.209-0.124-0.512-0.124-0.844c0-0.639,0.171-1.154,0.389-1.154
		c0.214,0,0.391,0.516,0.391,1.154c0,0.333-0.05,0.635-0.127,0.844h2.988c-0.075-0.209-0.124-0.512-0.124-0.844
		c0-0.639,0.173-1.154,0.392-1.154c0.211,0,0.388,0.516,0.388,1.154c0,0.333-0.049,0.635-0.125,0.844h2.994
		c-0.076-0.209-0.125-0.512-0.125-0.844c0-0.639,0.174-1.154,0.391-1.154c0.213,0,0.391,0.516,0.391,1.154
		c0,0.333-0.053,0.635-0.126,0.844h3.019c-0.077-0.209-0.125-0.512-0.125-0.844c0-0.639,0.175-1.154,0.392-1.154
		c0.212,0,0.386,0.516,0.386,1.154c0,0.333-0.054,0.627-0.131,0.839v1.603H90.456v1.102H76.968v-1.102h13.485l-6.742-3.616
		l-6.743,3.616H63.009V41.829z M90.456,44.554h13.954v24.229h-3.991c-0.807,2.044-4.628,3.75-9.966,4.542v-4.066
		c4.825-0.66,9.87-2.389,9.897-4.84c0.025-2.158-4.066-4.062-9.895-4.889V44.554z M100.417,59.533h1.945V47.356h-1.945V59.533z
		 M96.429,59.533h1.943V47.356h-1.943V59.533z M92.449,59.533h1.948V47.356h-1.948V59.533z M96.06,64.432
		c0-1.485-2.604-2.621-5.606-3.235v6.47C93.827,66.981,96.06,65.784,96.06,64.432z M89.003,59.525V47.367h-1.946v12.159H89.003z
		 M76.969,69.258v4.066c-5.339-0.792-9.161-2.498-9.965-4.542h-3.995V44.554h13.959v14.976c-5.835,0.827-9.923,2.73-9.896,4.889
		C67.101,66.869,72.144,68.598,76.969,69.258z M73.024,59.533h1.945V47.356h-1.945V59.533z M69.05,59.533h1.944V47.356H69.05V59.533
		z M67.004,47.356h-1.945v12.177h1.945V47.356z M71.365,64.432c0,1.353,2.229,2.55,5.604,3.234v-6.47
		C73.965,61.811,71.365,62.946,71.365,64.432z M78.147,67.67h11.132v-6.508H78.147V67.67z M85.572,59.525V47.367h-3.722v12.159
		H85.572z M80.364,59.525V47.367h-1.942v12.159H80.364z"/>
</g>
</svg>
